<mxfile host="app.diagrams.net" modified="2023-06-07T07:32:22.392Z" agent="Mozilla/5.0 (Windows NT 10.0; Win64; x64) AppleWebKit/537.36 (KHTML, like Gecko) Chrome/114.0.0.0 Safari/537.36" etag="XL-zkeAdrWbOYkx08avD" version="21.3.7">
  <diagram name="Página-1" id="altKlWIEwy7CdVfgzB5W">
    <mxGraphModel dx="1304" dy="720" grid="1" gridSize="10" guides="1" tooltips="1" connect="1" arrows="1" fold="1" page="1" pageScale="1" pageWidth="827" pageHeight="1169" math="0" shadow="0">
      <root>
        <mxCell id="0" />
        <mxCell id="1" parent="0" />
        <mxCell id="xb_BVNKUW_JwSUMzYblN-20" value="inscripción a cursos de alumnos nuevos" style="swimlane;startSize=20;horizontal=0;html=1;whiteSpace=wrap;" vertex="1" parent="1">
          <mxGeometry x="80" y="50" width="940" height="500" as="geometry" />
        </mxCell>
        <mxCell id="xb_BVNKUW_JwSUMzYblN-21" value="" style="swimlane;html=1;startSize=20;fontStyle=0;collapsible=0;horizontal=1;swimlaneLine=0;fillColor=none;whiteSpace=wrap;" vertex="1" parent="xb_BVNKUW_JwSUMzYblN-20">
          <mxGeometry x="20" width="920" height="170" as="geometry" />
        </mxCell>
        <mxCell id="xb_BVNKUW_JwSUMzYblN-25" value="configurar bloques de cursos de inscripción" style="points=[[0.25,0,0],[0.5,0,0],[0.75,0,0],[1,0.25,0],[1,0.5,0],[1,0.75,0],[0.75,1,0],[0.5,1,0],[0.25,1,0],[0,0.75,0],[0,0.5,0],[0,0.25,0]];shape=mxgraph.bpmn.task;whiteSpace=wrap;rectStyle=rounded;size=10;html=1;container=1;expand=0;collapsible=0;taskMarker=abstract;" vertex="1" parent="xb_BVNKUW_JwSUMzYblN-21">
          <mxGeometry x="174" y="40" width="120" height="80" as="geometry" />
        </mxCell>
        <mxCell id="xb_BVNKUW_JwSUMzYblN-39" value="Registros académicos" style="text;whiteSpace=wrap;html=1;rotation=-90;" vertex="1" parent="xb_BVNKUW_JwSUMzYblN-21">
          <mxGeometry x="-42.5" y="68.75" width="122.5" height="32.5" as="geometry" />
        </mxCell>
        <mxCell id="xb_BVNKUW_JwSUMzYblN-40" value="Estudiante" style="text;whiteSpace=wrap;html=1;rotation=-90;" vertex="1" parent="xb_BVNKUW_JwSUMzYblN-20">
          <mxGeometry x="10" y="400" width="70" height="32.5" as="geometry" />
        </mxCell>
        <mxCell id="xb_BVNKUW_JwSUMzYblN-115" style="edgeStyle=orthogonalEdgeStyle;rounded=0;orthogonalLoop=1;jettySize=auto;html=1;" edge="1" parent="xb_BVNKUW_JwSUMzYblN-20" source="xb_BVNKUW_JwSUMzYblN-44" target="xb_BVNKUW_JwSUMzYblN-114">
          <mxGeometry relative="1" as="geometry" />
        </mxCell>
        <mxCell id="xb_BVNKUW_JwSUMzYblN-44" value="aceptación de bloque de cursos" style="points=[[0.25,0,0],[0.5,0,0],[0.75,0,0],[1,0.25,0],[1,0.5,0],[1,0.75,0],[0.75,1,0],[0.5,1,0],[0.25,1,0],[0,0.75,0],[0,0.5,0],[0,0.25,0]];shape=mxgraph.bpmn.task;whiteSpace=wrap;rectStyle=rounded;size=10;html=1;container=1;expand=0;collapsible=0;taskMarker=abstract;" vertex="1" parent="xb_BVNKUW_JwSUMzYblN-20">
          <mxGeometry x="360" y="376.25" width="120" height="80" as="geometry" />
        </mxCell>
        <mxCell id="xb_BVNKUW_JwSUMzYblN-95" value="" style="swimlane;html=1;startSize=20;fontStyle=0;collapsible=0;horizontal=1;swimlaneLine=0;fillColor=none;whiteSpace=wrap;" vertex="1" parent="xb_BVNKUW_JwSUMzYblN-20">
          <mxGeometry x="20" y="170" width="920" height="170" as="geometry" />
        </mxCell>
        <mxCell id="xb_BVNKUW_JwSUMzYblN-101" value="asignación de bloque de cursos" style="points=[[0.25,0,0],[0.5,0,0],[0.75,0,0],[1,0.25,0],[1,0.5,0],[1,0.75,0],[0.75,1,0],[0.5,1,0],[0.25,1,0],[0,0.75,0],[0,0.5,0],[0,0.25,0]];shape=mxgraph.bpmn.task;whiteSpace=wrap;rectStyle=rounded;size=10;html=1;container=1;expand=0;collapsible=0;taskMarker=abstract;" vertex="1" parent="xb_BVNKUW_JwSUMzYblN-95">
          <mxGeometry x="340" y="45" width="120" height="80" as="geometry" />
        </mxCell>
        <mxCell id="xb_BVNKUW_JwSUMzYblN-103" value="Admisión" style="text;whiteSpace=wrap;html=1;rotation=-90;" vertex="1" parent="xb_BVNKUW_JwSUMzYblN-95">
          <mxGeometry x="-12.5" y="68.75" width="65" height="32.5" as="geometry" />
        </mxCell>
        <mxCell id="xb_BVNKUW_JwSUMzYblN-129" value="no" style="text;whiteSpace=wrap;html=1;" vertex="1" parent="xb_BVNKUW_JwSUMzYblN-95">
          <mxGeometry x="580" y="110" width="20" height="30" as="geometry" />
        </mxCell>
        <mxCell id="xb_BVNKUW_JwSUMzYblN-110" style="edgeStyle=orthogonalEdgeStyle;rounded=0;orthogonalLoop=1;jettySize=auto;html=1;entryX=0;entryY=0.5;entryDx=0;entryDy=0;entryPerimeter=0;" edge="1" parent="xb_BVNKUW_JwSUMzYblN-20" source="xb_BVNKUW_JwSUMzYblN-97" target="xb_BVNKUW_JwSUMzYblN-25">
          <mxGeometry relative="1" as="geometry">
            <Array as="points">
              <mxPoint x="125" y="80" />
            </Array>
          </mxGeometry>
        </mxCell>
        <mxCell id="xb_BVNKUW_JwSUMzYblN-112" style="edgeStyle=orthogonalEdgeStyle;rounded=0;orthogonalLoop=1;jettySize=auto;html=1;entryX=0.5;entryY=0;entryDx=0;entryDy=0;entryPerimeter=0;" edge="1" parent="xb_BVNKUW_JwSUMzYblN-20" source="xb_BVNKUW_JwSUMzYblN-25" target="xb_BVNKUW_JwSUMzYblN-101">
          <mxGeometry relative="1" as="geometry" />
        </mxCell>
        <mxCell id="xb_BVNKUW_JwSUMzYblN-113" style="edgeStyle=orthogonalEdgeStyle;rounded=0;orthogonalLoop=1;jettySize=auto;html=1;entryX=0.5;entryY=0;entryDx=0;entryDy=0;entryPerimeter=0;" edge="1" parent="xb_BVNKUW_JwSUMzYblN-20" source="xb_BVNKUW_JwSUMzYblN-101" target="xb_BVNKUW_JwSUMzYblN-44">
          <mxGeometry relative="1" as="geometry" />
        </mxCell>
        <mxCell id="xb_BVNKUW_JwSUMzYblN-116" style="edgeStyle=orthogonalEdgeStyle;rounded=0;orthogonalLoop=1;jettySize=auto;html=1;entryX=1;entryY=0.5;entryDx=0;entryDy=0;entryPerimeter=0;" edge="1" parent="xb_BVNKUW_JwSUMzYblN-20" source="xb_BVNKUW_JwSUMzYblN-114" target="xb_BVNKUW_JwSUMzYblN-101">
          <mxGeometry relative="1" as="geometry">
            <Array as="points">
              <mxPoint x="595" y="255" />
            </Array>
          </mxGeometry>
        </mxCell>
        <mxCell id="xb_BVNKUW_JwSUMzYblN-117" style="edgeStyle=orthogonalEdgeStyle;rounded=0;orthogonalLoop=1;jettySize=auto;html=1;entryX=0;entryY=0.5;entryDx=0;entryDy=0;entryPerimeter=0;" edge="1" parent="xb_BVNKUW_JwSUMzYblN-20" source="xb_BVNKUW_JwSUMzYblN-114" target="xb_BVNKUW_JwSUMzYblN-105">
          <mxGeometry relative="1" as="geometry" />
        </mxCell>
        <mxCell id="xb_BVNKUW_JwSUMzYblN-114" value="" style="points=[[0.25,0.25,0],[0.5,0,0],[0.75,0.25,0],[1,0.5,0],[0.75,0.75,0],[0.5,1,0],[0.25,0.75,0],[0,0.5,0]];shape=mxgraph.bpmn.gateway2;html=1;verticalLabelPosition=bottom;labelBackgroundColor=#ffffff;verticalAlign=top;align=center;perimeter=rhombusPerimeter;outlineConnect=0;outline=none;symbol=none;gwType=exclusive;" vertex="1" parent="xb_BVNKUW_JwSUMzYblN-20">
          <mxGeometry x="570" y="391.25" width="50" height="50" as="geometry" />
        </mxCell>
        <mxCell id="xb_BVNKUW_JwSUMzYblN-107" value="¿inscribirse?" style="text;whiteSpace=wrap;html=1;" vertex="1" parent="xb_BVNKUW_JwSUMzYblN-20">
          <mxGeometry x="557.5" y="456.25" width="75" height="30" as="geometry" />
        </mxCell>
        <mxCell id="xb_BVNKUW_JwSUMzYblN-104" style="edgeStyle=orthogonalEdgeStyle;rounded=0;orthogonalLoop=1;jettySize=auto;html=1;entryX=0;entryY=0.5;entryDx=0;entryDy=0;entryPerimeter=0;" edge="1" parent="xb_BVNKUW_JwSUMzYblN-20" source="xb_BVNKUW_JwSUMzYblN-105" target="xb_BVNKUW_JwSUMzYblN-106">
          <mxGeometry relative="1" as="geometry" />
        </mxCell>
        <mxCell id="xb_BVNKUW_JwSUMzYblN-105" value="carga académica asignada" style="points=[[0.25,0,0],[0.5,0,0],[0.75,0,0],[1,0.25,0],[1,0.5,0],[1,0.75,0],[0.75,1,0],[0.5,1,0],[0.25,1,0],[0,0.75,0],[0,0.5,0],[0,0.25,0]];shape=mxgraph.bpmn.task;whiteSpace=wrap;rectStyle=rounded;size=10;html=1;container=1;expand=0;collapsible=0;taskMarker=abstract;" vertex="1" parent="xb_BVNKUW_JwSUMzYblN-20">
          <mxGeometry x="680" y="376.25" width="120" height="80" as="geometry" />
        </mxCell>
        <mxCell id="xb_BVNKUW_JwSUMzYblN-106" value="" style="points=[[0.145,0.145,0],[0.5,0,0],[0.855,0.145,0],[1,0.5,0],[0.855,0.855,0],[0.5,1,0],[0.145,0.855,0],[0,0.5,0]];shape=mxgraph.bpmn.event;html=1;verticalLabelPosition=bottom;labelBackgroundColor=#ffffff;verticalAlign=top;align=center;perimeter=ellipsePerimeter;outlineConnect=0;aspect=fixed;outline=end;symbol=terminate;" vertex="1" parent="xb_BVNKUW_JwSUMzYblN-20">
          <mxGeometry x="860" y="391.25" width="50" height="50" as="geometry" />
        </mxCell>
        <mxCell id="xb_BVNKUW_JwSUMzYblN-37" value="estudiante inscrito" style="text;whiteSpace=wrap;html=1;" vertex="1" parent="xb_BVNKUW_JwSUMzYblN-20">
          <mxGeometry x="855" y="446.25" width="60" height="30" as="geometry" />
        </mxCell>
        <mxCell id="xb_BVNKUW_JwSUMzYblN-102" value="ingreso a la plataforma" style="text;whiteSpace=wrap;html=1;" vertex="1" parent="xb_BVNKUW_JwSUMzYblN-20">
          <mxGeometry x="90" y="446.25" width="65" height="40" as="geometry" />
        </mxCell>
        <mxCell id="xb_BVNKUW_JwSUMzYblN-97" value="" style="points=[[0.145,0.145,0],[0.5,0,0],[0.855,0.145,0],[1,0.5,0],[0.855,0.855,0],[0.5,1,0],[0.145,0.855,0],[0,0.5,0]];shape=mxgraph.bpmn.event;html=1;verticalLabelPosition=bottom;labelBackgroundColor=#ffffff;verticalAlign=top;align=center;perimeter=ellipsePerimeter;outlineConnect=0;aspect=fixed;outline=standard;symbol=general;" vertex="1" parent="xb_BVNKUW_JwSUMzYblN-20">
          <mxGeometry x="97.5" y="391.25" width="50" height="50" as="geometry" />
        </mxCell>
        <mxCell id="xb_BVNKUW_JwSUMzYblN-128" value="si" style="text;whiteSpace=wrap;html=1;" vertex="1" parent="xb_BVNKUW_JwSUMzYblN-20">
          <mxGeometry x="640" y="391.25" width="20" height="30" as="geometry" />
        </mxCell>
        <mxCell id="xb_BVNKUW_JwSUMzYblN-54" value="matriculacion de alumnos nuevos" style="swimlane;startSize=20;horizontal=0;html=1;whiteSpace=wrap;" vertex="1" parent="1">
          <mxGeometry x="80" y="550" width="940" height="420" as="geometry" />
        </mxCell>
        <mxCell id="xb_BVNKUW_JwSUMzYblN-55" value="" style="swimlane;html=1;startSize=20;fontStyle=0;collapsible=0;horizontal=1;swimlaneLine=0;fillColor=none;whiteSpace=wrap;" vertex="1" parent="xb_BVNKUW_JwSUMzYblN-54">
          <mxGeometry x="20" width="920" height="230" as="geometry" />
        </mxCell>
        <mxCell id="xb_BVNKUW_JwSUMzYblN-56" style="edgeStyle=orthogonalEdgeStyle;rounded=0;orthogonalLoop=1;jettySize=auto;html=1;entryX=0;entryY=0.5;entryDx=0;entryDy=0;entryPerimeter=0;" edge="1" parent="xb_BVNKUW_JwSUMzYblN-55" source="xb_BVNKUW_JwSUMzYblN-57" target="xb_BVNKUW_JwSUMzYblN-59">
          <mxGeometry relative="1" as="geometry" />
        </mxCell>
        <mxCell id="xb_BVNKUW_JwSUMzYblN-57" value="" style="points=[[0.145,0.145,0],[0.5,0,0],[0.855,0.145,0],[1,0.5,0],[0.855,0.855,0],[0.5,1,0],[0.145,0.855,0],[0,0.5,0]];shape=mxgraph.bpmn.event;html=1;verticalLabelPosition=bottom;labelBackgroundColor=#ffffff;verticalAlign=top;align=center;perimeter=ellipsePerimeter;outlineConnect=0;aspect=fixed;outline=standard;symbol=general;" vertex="1" parent="xb_BVNKUW_JwSUMzYblN-55">
          <mxGeometry x="80" y="90" width="50" height="50" as="geometry" />
        </mxCell>
        <mxCell id="xb_BVNKUW_JwSUMzYblN-58" style="edgeStyle=orthogonalEdgeStyle;rounded=0;orthogonalLoop=1;jettySize=auto;html=1;entryX=0;entryY=0.5;entryDx=0;entryDy=0;entryPerimeter=0;" edge="1" parent="xb_BVNKUW_JwSUMzYblN-55" source="xb_BVNKUW_JwSUMzYblN-59" target="xb_BVNKUW_JwSUMzYblN-61">
          <mxGeometry relative="1" as="geometry" />
        </mxCell>
        <mxCell id="xb_BVNKUW_JwSUMzYblN-59" value="registro y adjunción" style="points=[[0.25,0,0],[0.5,0,0],[0.75,0,0],[1,0.25,0],[1,0.5,0],[1,0.75,0],[0.75,1,0],[0.5,1,0],[0.25,1,0],[0,0.75,0],[0,0.5,0],[0,0.25,0]];shape=mxgraph.bpmn.task;whiteSpace=wrap;rectStyle=rounded;size=10;html=1;container=1;expand=0;collapsible=0;taskMarker=abstract;" vertex="1" parent="xb_BVNKUW_JwSUMzYblN-55">
          <mxGeometry x="170" y="75" width="120" height="80" as="geometry" />
        </mxCell>
        <mxCell id="xb_BVNKUW_JwSUMzYblN-119" style="edgeStyle=orthogonalEdgeStyle;rounded=0;orthogonalLoop=1;jettySize=auto;html=1;exitX=1;exitY=0.5;exitDx=0;exitDy=0;exitPerimeter=0;entryX=0;entryY=0.5;entryDx=0;entryDy=0;entryPerimeter=0;" edge="1" parent="xb_BVNKUW_JwSUMzYblN-55" source="xb_BVNKUW_JwSUMzYblN-61" target="xb_BVNKUW_JwSUMzYblN-118">
          <mxGeometry relative="1" as="geometry" />
        </mxCell>
        <mxCell id="xb_BVNKUW_JwSUMzYblN-61" value="reporte de registro y generación de código CTP" style="points=[[0.25,0,0],[0.5,0,0],[0.75,0,0],[1,0.25,0],[1,0.5,0],[1,0.75,0],[0.75,1,0],[0.5,1,0],[0.25,1,0],[0,0.75,0],[0,0.5,0],[0,0.25,0]];shape=mxgraph.bpmn.task;whiteSpace=wrap;rectStyle=rounded;size=10;html=1;container=1;expand=0;collapsible=0;taskMarker=abstract;" vertex="1" parent="xb_BVNKUW_JwSUMzYblN-55">
          <mxGeometry x="340" y="75" width="120" height="80" as="geometry" />
        </mxCell>
        <mxCell id="xb_BVNKUW_JwSUMzYblN-64" value="ingreso a la plataforma" style="text;whiteSpace=wrap;html=1;" vertex="1" parent="xb_BVNKUW_JwSUMzYblN-55">
          <mxGeometry x="72.5" y="155" width="65" height="40" as="geometry" />
        </mxCell>
        <mxCell id="xb_BVNKUW_JwSUMzYblN-68" value="" style="points=[[0.145,0.145,0],[0.5,0,0],[0.855,0.145,0],[1,0.5,0],[0.855,0.855,0],[0.5,1,0],[0.145,0.855,0],[0,0.5,0]];shape=mxgraph.bpmn.event;html=1;verticalLabelPosition=bottom;labelBackgroundColor=#ffffff;verticalAlign=top;align=center;perimeter=ellipsePerimeter;outlineConnect=0;aspect=fixed;outline=end;symbol=terminate;" vertex="1" parent="xb_BVNKUW_JwSUMzYblN-55">
          <mxGeometry x="810" y="150" width="50" height="50" as="geometry" />
        </mxCell>
        <mxCell id="xb_BVNKUW_JwSUMzYblN-75" value="lista de observaciones" style="points=[[0.25,0,0],[0.5,0,0],[0.75,0,0],[1,0.25,0],[1,0.5,0],[1,0.75,0],[0.75,1,0],[0.5,1,0],[0.25,1,0],[0,0.75,0],[0,0.5,0],[0,0.25,0]];shape=mxgraph.bpmn.task;whiteSpace=wrap;rectStyle=rounded;size=10;html=1;container=1;expand=0;collapsible=0;taskMarker=abstract;" vertex="1" parent="xb_BVNKUW_JwSUMzYblN-55">
          <mxGeometry x="635" y="137.5" width="120" height="80" as="geometry" />
        </mxCell>
        <mxCell id="xb_BVNKUW_JwSUMzYblN-120" style="edgeStyle=orthogonalEdgeStyle;rounded=0;orthogonalLoop=1;jettySize=auto;html=1;entryX=0.25;entryY=0;entryDx=0;entryDy=0;entryPerimeter=0;exitX=0.5;exitY=0;exitDx=0;exitDy=0;exitPerimeter=0;" edge="1" parent="xb_BVNKUW_JwSUMzYblN-55" source="xb_BVNKUW_JwSUMzYblN-118" target="xb_BVNKUW_JwSUMzYblN-61">
          <mxGeometry relative="1" as="geometry">
            <Array as="points">
              <mxPoint x="570" y="30" />
              <mxPoint x="370" y="30" />
            </Array>
          </mxGeometry>
        </mxCell>
        <mxCell id="xb_BVNKUW_JwSUMzYblN-118" value="" style="points=[[0.25,0.25,0],[0.5,0,0],[0.75,0.25,0],[1,0.5,0],[0.75,0.75,0],[0.5,1,0],[0.25,0.75,0],[0,0.5,0]];shape=mxgraph.bpmn.gateway2;html=1;verticalLabelPosition=bottom;labelBackgroundColor=#ffffff;verticalAlign=top;align=center;perimeter=rhombusPerimeter;outlineConnect=0;outline=none;symbol=none;gwType=exclusive;" vertex="1" parent="xb_BVNKUW_JwSUMzYblN-55">
          <mxGeometry x="545" y="90" width="50" height="50" as="geometry" />
        </mxCell>
        <mxCell id="xb_BVNKUW_JwSUMzYblN-121" value="no" style="text;whiteSpace=wrap;html=1;" vertex="1" parent="xb_BVNKUW_JwSUMzYblN-55">
          <mxGeometry x="460" y="5" width="20" height="30" as="geometry" />
        </mxCell>
        <mxCell id="xb_BVNKUW_JwSUMzYblN-122" value="verificación de pago" style="text;whiteSpace=wrap;html=1;" vertex="1" parent="xb_BVNKUW_JwSUMzYblN-55">
          <mxGeometry x="480" y="190" width="85" height="40" as="geometry" />
        </mxCell>
        <mxCell id="xb_BVNKUW_JwSUMzYblN-124" value="si" style="text;whiteSpace=wrap;html=1;" vertex="1" parent="xb_BVNKUW_JwSUMzYblN-55">
          <mxGeometry x="575" y="137.5" width="20" height="30" as="geometry" />
        </mxCell>
        <mxCell id="xb_BVNKUW_JwSUMzYblN-127" value="estudiante matriculado" style="text;whiteSpace=wrap;html=1;" vertex="1" parent="xb_BVNKUW_JwSUMzYblN-55">
          <mxGeometry x="797.5" y="100" width="75" height="30" as="geometry" />
        </mxCell>
        <mxCell id="xb_BVNKUW_JwSUMzYblN-73" value="¿existencia de observaciones?" style="text;whiteSpace=wrap;html=1;" vertex="1" parent="xb_BVNKUW_JwSUMzYblN-54">
          <mxGeometry x="668.13" y="365" width="93.75" height="30" as="geometry" />
        </mxCell>
        <mxCell id="xb_BVNKUW_JwSUMzYblN-91" style="edgeStyle=orthogonalEdgeStyle;rounded=0;orthogonalLoop=1;jettySize=auto;html=1;entryX=0;entryY=0.5;entryDx=0;entryDy=0;entryPerimeter=0;" edge="1" parent="xb_BVNKUW_JwSUMzYblN-54" source="xb_BVNKUW_JwSUMzYblN-77" target="xb_BVNKUW_JwSUMzYblN-87">
          <mxGeometry relative="1" as="geometry" />
        </mxCell>
        <mxCell id="xb_BVNKUW_JwSUMzYblN-77" value="evaluación y centralización de información del estudiante" style="points=[[0.25,0,0],[0.5,0,0],[0.75,0,0],[1,0.25,0],[1,0.5,0],[1,0.75,0],[0.75,1,0],[0.5,1,0],[0.25,1,0],[0,0.75,0],[0,0.5,0],[0,0.25,0]];shape=mxgraph.bpmn.task;whiteSpace=wrap;rectStyle=rounded;size=10;html=1;container=1;expand=0;collapsible=0;taskMarker=abstract;" vertex="1" parent="xb_BVNKUW_JwSUMzYblN-54">
          <mxGeometry x="530" y="300" width="120" height="80" as="geometry" />
        </mxCell>
        <mxCell id="xb_BVNKUW_JwSUMzYblN-86" style="edgeStyle=orthogonalEdgeStyle;rounded=0;orthogonalLoop=1;jettySize=auto;html=1;entryX=0.5;entryY=1;entryDx=0;entryDy=0;entryPerimeter=0;" edge="1" parent="xb_BVNKUW_JwSUMzYblN-54" source="xb_BVNKUW_JwSUMzYblN-67" target="xb_BVNKUW_JwSUMzYblN-68">
          <mxGeometry relative="1" as="geometry" />
        </mxCell>
        <mxCell id="xb_BVNKUW_JwSUMzYblN-67" value="se asignará un número de carnet universitario y generación de matricula" style="points=[[0.25,0,0],[0.5,0,0],[0.75,0,0],[1,0.25,0],[1,0.5,0],[1,0.75,0],[0.75,1,0],[0.5,1,0],[0.25,1,0],[0,0.75,0],[0,0.5,0],[0,0.25,0]];shape=mxgraph.bpmn.task;whiteSpace=wrap;rectStyle=rounded;size=10;html=1;container=1;expand=0;collapsible=0;taskMarker=abstract;" vertex="1" parent="xb_BVNKUW_JwSUMzYblN-54">
          <mxGeometry x="795" y="300" width="120" height="80" as="geometry" />
        </mxCell>
        <mxCell id="xb_BVNKUW_JwSUMzYblN-88" style="edgeStyle=orthogonalEdgeStyle;rounded=0;orthogonalLoop=1;jettySize=auto;html=1;entryX=0;entryY=0.5;entryDx=0;entryDy=0;entryPerimeter=0;" edge="1" parent="xb_BVNKUW_JwSUMzYblN-54" source="xb_BVNKUW_JwSUMzYblN-87" target="xb_BVNKUW_JwSUMzYblN-67">
          <mxGeometry relative="1" as="geometry" />
        </mxCell>
        <mxCell id="xb_BVNKUW_JwSUMzYblN-89" style="edgeStyle=orthogonalEdgeStyle;rounded=0;orthogonalLoop=1;jettySize=auto;html=1;entryX=0.5;entryY=1;entryDx=0;entryDy=0;entryPerimeter=0;" edge="1" parent="xb_BVNKUW_JwSUMzYblN-54" source="xb_BVNKUW_JwSUMzYblN-87" target="xb_BVNKUW_JwSUMzYblN-75">
          <mxGeometry relative="1" as="geometry" />
        </mxCell>
        <mxCell id="xb_BVNKUW_JwSUMzYblN-87" value="" style="points=[[0.25,0.25,0],[0.5,0,0],[0.75,0.25,0],[1,0.5,0],[0.75,0.75,0],[0.5,1,0],[0.25,0.75,0],[0,0.5,0]];shape=mxgraph.bpmn.gateway2;html=1;verticalLabelPosition=bottom;labelBackgroundColor=#ffffff;verticalAlign=top;align=center;perimeter=rhombusPerimeter;outlineConnect=0;outline=none;symbol=none;gwType=exclusive;" vertex="1" parent="xb_BVNKUW_JwSUMzYblN-54">
          <mxGeometry x="690" y="315" width="50" height="50" as="geometry" />
        </mxCell>
        <mxCell id="xb_BVNKUW_JwSUMzYblN-123" style="edgeStyle=orthogonalEdgeStyle;rounded=0;orthogonalLoop=1;jettySize=auto;html=1;entryX=0.5;entryY=0;entryDx=0;entryDy=0;entryPerimeter=0;" edge="1" parent="xb_BVNKUW_JwSUMzYblN-54" source="xb_BVNKUW_JwSUMzYblN-118" target="xb_BVNKUW_JwSUMzYblN-77">
          <mxGeometry relative="1" as="geometry" />
        </mxCell>
        <mxCell id="xb_BVNKUW_JwSUMzYblN-125" value="si" style="text;whiteSpace=wrap;html=1;" vertex="1" parent="xb_BVNKUW_JwSUMzYblN-54">
          <mxGeometry x="720" y="250" width="20" height="30" as="geometry" />
        </mxCell>
        <mxCell id="xb_BVNKUW_JwSUMzYblN-126" value="no" style="text;whiteSpace=wrap;html=1;" vertex="1" parent="xb_BVNKUW_JwSUMzYblN-54">
          <mxGeometry x="760" y="315" width="20" height="30" as="geometry" />
        </mxCell>
      </root>
    </mxGraphModel>
  </diagram>
</mxfile>
